<svg width="500" height="500" viewBox="0 0 500 500" fill="none" xmlns="http://www.w3.org/2000/svg">
<rect width="500" height="500" fill="white"/>
<path d="M153.979 294.958C176.059 294.958 193.958 278.001 193.958 257.083H177.125L170.813 263.396L164.5 257.083H114C114 278.001 131.899 294.958 153.979 294.958Z" stroke="black" stroke-width="6" stroke-linecap="round" stroke-linejoin="round"/>
<path d="M189.634 257.083C189.894 255.368 189.634 253.611 189.634 251.823C189.634 232.648 174.14 215 155.028 215C146.984 215 137.484 217.753 131.607 222.372C132.497 223.918 133.006 225.712 133.006 227.625C133.006 233.435 128.311 238.146 122.519 238.146C121.783 238.146 121.065 238.07 120.372 237.925C119.047 241.607 118.324 247.683 118.324 251.823C118.324 253.611 118.063 255.368 118.323 257.083" stroke="black" stroke-width="6" stroke-linecap="round" stroke-linejoin="round"/>
<path d="M116.104 269.708H137.146" stroke="black" stroke-width="6" stroke-linecap="round" stroke-linejoin="round"/>
<path d="M214.149 288.479V218.661H239.718C244.672 218.661 248.774 219.479 252.024 221.116C255.274 222.729 257.706 224.922 259.32 227.695C260.934 230.445 261.74 233.547 261.74 237.002C261.74 239.911 261.206 242.366 260.138 244.366C259.07 246.343 257.638 247.934 255.843 249.138C254.07 250.32 252.115 251.184 249.979 251.729V252.411C252.297 252.525 254.559 253.275 256.763 254.661C258.99 256.025 260.831 257.968 262.286 260.491C263.74 263.013 264.468 266.082 264.468 269.695C264.468 273.263 263.627 276.468 261.945 279.309C260.286 282.127 257.718 284.366 254.24 286.025C250.763 287.661 246.32 288.479 240.911 288.479H214.149ZM224.684 279.445H239.888C244.934 279.445 248.547 278.468 250.729 276.513C252.911 274.559 254.002 272.116 254.002 269.184C254.002 266.979 253.445 264.957 252.331 263.116C251.218 261.275 249.627 259.809 247.559 258.718C245.513 257.627 243.081 257.082 240.263 257.082H224.684V279.445ZM224.684 248.866H238.797C241.161 248.866 243.286 248.411 245.172 247.502C247.081 246.593 248.593 245.32 249.706 243.684C250.843 242.025 251.411 240.07 251.411 237.82C251.411 234.934 250.399 232.513 248.377 230.559C246.354 228.604 243.252 227.627 239.07 227.627H224.684V248.866ZM276.144 288.479V236.116H286.337V288.479H276.144ZM281.292 228.036C279.519 228.036 277.996 227.445 276.723 226.263C275.473 225.059 274.848 223.627 274.848 221.968C274.848 220.286 275.473 218.854 276.723 217.672C277.996 216.468 279.519 215.866 281.292 215.866C283.064 215.866 284.576 216.468 285.826 217.672C287.098 218.854 287.735 220.286 287.735 221.968C287.735 223.627 287.098 225.059 285.826 226.263C284.576 227.445 283.064 228.036 281.292 228.036ZM324.493 236.116V244.297H295.891V236.116H324.493ZM303.561 223.57H313.755V273.104C313.755 275.082 314.05 276.57 314.641 277.57C315.232 278.547 315.993 279.218 316.925 279.582C317.88 279.922 318.914 280.093 320.027 280.093C320.845 280.093 321.561 280.036 322.175 279.922C322.789 279.809 323.266 279.718 323.607 279.65L325.448 288.07C324.857 288.297 324.016 288.525 322.925 288.752C321.834 289.002 320.47 289.138 318.834 289.161C316.152 289.207 313.652 288.729 311.334 287.729C309.016 286.729 307.141 285.184 305.709 283.093C304.277 281.002 303.561 278.377 303.561 275.218V223.57ZM357.774 289.536C352.615 289.536 348.172 288.434 344.445 286.229C340.74 284.002 337.877 280.877 335.854 276.854C333.854 272.809 332.854 268.07 332.854 262.638C332.854 257.275 333.854 252.547 335.854 248.457C337.877 244.366 340.695 241.172 344.309 238.877C347.945 236.582 352.195 235.434 357.059 235.434C360.013 235.434 362.877 235.922 365.649 236.9C368.422 237.877 370.911 239.411 373.115 241.502C375.32 243.593 377.059 246.309 378.331 249.65C379.604 252.968 380.24 257.002 380.24 261.752V265.366H338.615V257.729H370.252C370.252 255.047 369.706 252.672 368.615 250.604C367.524 248.513 365.99 246.866 364.013 245.661C362.059 244.457 359.763 243.854 357.127 243.854C354.263 243.854 351.763 244.559 349.627 245.968C347.513 247.354 345.877 249.172 344.718 251.422C343.581 253.65 343.013 256.07 343.013 258.684V264.65C343.013 268.15 343.627 271.127 344.854 273.582C346.104 276.036 347.843 277.911 350.07 279.207C352.297 280.479 354.899 281.116 357.877 281.116C359.809 281.116 361.57 280.843 363.161 280.297C364.752 279.729 366.127 278.888 367.286 277.775C368.445 276.661 369.331 275.286 369.945 273.65L379.593 275.388C378.82 278.229 377.434 280.718 375.434 282.854C373.456 284.968 370.968 286.616 367.968 287.797C364.99 288.957 361.593 289.536 357.774 289.536Z" fill="black"/>
</svg>
